# xmcd
#
# Track frame offsets:
#	151
#	20407
#	41116
#	70420
#	89525
#	108190
#	127107
#	146973
#	165303
#	190680
#
# Disc length: 2787 seconds
#
# Revision: 1
# Processed by: cddbd v1.5.2PL0 Copyright (c) Steve Scherf et al.
# Submitted via: audiograbber 1.83.01
#
DISCID=8c0ae10a
DTITLE=Geoff Hartwell - Hate To See You Go
DYEAR=2009
DGENRE=Blues
TTITLE0=Thumbelina
TTITLE1=Drinkin' Bourbon Whiskey
TTITLE2=Hate to See You Go
TTITLE3=Dreams
TTITLE4=Bar Fungul
TTITLE5=Summertime
TTITLE6=Maybelline
TTITLE7=Are You Happy Now?
TTITLE8=Honest
TTITLE9=Water is Wide
EXTD=
EXTT0=
EXTT1=
EXTT2=
EXTT3=
EXTT4=
EXTT5=
EXTT6=
EXTT7=
EXTT8=
EXTT9=
PLAYORDER=
